Coordinates
version=1
nRows=20
nColumns=38
inDegrees=no

Units are S.I. units (second, meters, Newtons, ...)
If the header above contains a line with 'inDegrees', this indicates whether rotational values are in degrees (yes) or radians (no).

endheader
time	pelvis_tilt	pelvis_list	pelvis_rotation	pelvis_tx	pelvis_ty	pelvis_tz	hip_flexion_r	hip_adduction_r	hip_rotation_r	knee_angle_r	ankle_angle_r	subtalar_angle_r	mtp_angle_r	hip_flexion_l	hip_adduction_l	hip_rotation_l	knee_angle_l	ankle_angle_l	subtalar_angle_l	mtp_angle_l	lumbar_extension	lumbar_bending	lumbar_rotation	arm_flex_r	arm_add_r	arm_rot_r	elbow_flex_r	pro_sup_r	wrist_flex_r	wrist_dev_r	arm_flex_l	arm_add_l	arm_rot_l	elbow_flex_l	pro_sup_l	wrist_flex_l	wrist_dev_l
0	0.590034	1.51247	1.13947	0.626747	0.260704	1.01062	0.589829	-0.0315938	-0.0152652	0.360147	-0.227975	0	0	0.016359	-0.044919	-0.164156	0.509503	-0.0372951	0	0	-0.0902276	0.102492	0.000907558	-0.364884	-0.36034	0.111538	0.659464	1.12094	0	0	0.56844	-0.525756	1.10083	0.445103	1.15414	0	0
0.01	0.561527	1.50986	1.17526	0.626587	0.270321	1.00909	0.586758	-0.0356631	-0.0063734	0.315718	-0.233955	0	0	0.0333658	-0.0648288	-0.219068	0.567035	-0.0405595	0	0	-0.0894904	0.10456	-0.00852889	-0.361616	-0.366406	0.129084	0.661252	1.10225	0	0	0.567138	-0.532943	1.07939	0.454227	1.16879	0	0
0.02	0.541593	1.5057	1.20405	0.626146	0.28053	1.00754	0.581862	-0.0400758	0.000364974	0.269439	-0.229984	0	0	0.0266367	-0.0669782	-0.212263	0.564292	-0.0373856	0	0	-0.0861592	0.108539	-0.0215182	-0.357576	-0.374488	0.151175	0.661764	1.08073	0	0	0.561002	-0.540788	1.05675	0.463453	1.18151	0	0
0.03	0.514931	1.50125	1.23969	0.625692	0.290954	1.00585	0.58196	-0.0456806	0.00316023	0.240461	-0.210022	0	0	0.0211283	-0.0691836	-0.20765	0.563743	-0.0338239	0	0	-0.0822438	0.112337	-0.0361459	-0.352933	-0.383099	0.173508	0.662534	1.05886	0	0	0.551975	-0.550753	1.03532	0.475311	1.18836	0	0
0.04	0.529277	1.50082	1.23389	0.625275	0.301396	1.00458	0.573376	-0.0492695	0.0105955	0.207228	-0.236772	0	0	0.0105775	-0.0738568	-0.207806	0.563494	-0.0363624	0	0	-0.0850765	0.117954	-0.0358238	-0.361808	-0.376131	0.142964	0.665285	1.09021	0	0	0.562956	-0.544355	1.05324	0.466333	1.18569	0	0
0.05	0.564612	1.50238	1.20739	0.624961	0.311891	1.00348	0.562058	-0.0517407	0.018747	0.180187	-0.239877	0	0	-0.00150715	-0.0802537	-0.209652	0.565822	-0.0363728	0	0	-0.088686	0.120254	-0.0351748	-0.360125	-0.376971	0.15536	0.65538	1.07989	0	0	0.574411	-0.541414	1.07553	0.463448	1.17512	0	0
0.06	0.575476	1.5014	1.20501	0.62478	0.322492	1.002	0.561924	-0.0546043	0.018509	0.178385	-0.229324	0	0	-0.00927408	-0.08613	-0.210477	0.570324	-0.0365361	0	0	-0.0872598	0.120847	-0.0376304	-0.357673	-0.377183	0.167824	0.645145	1.07033	0	0	0.576563	-0.54122	1.07515	0.465062	1.17726	0	0
0.07	0.588266	1.49962	1.20054	0.624727	0.333276	1.00055	0.563437	-0.0560979	0.016713	0.184578	-0.218518	0	0	-0.0157613	-0.0927349	-0.210343	0.57551	-0.0368789	0	0	-0.0855427	0.122668	-0.0419341	-0.354614	-0.377804	0.17993	0.635857	1.06077	0	0	0.5745	-0.542929	1.06911	0.468943	1.17956	0	0
0.08	0.596784	1.49699	1.19983	0.624874	0.344277	0.999098	0.566331	-0.0562685	0.0146312	0.197075	-0.203723	0	0	-0.0208476	-0.0995142	-0.208831	0.581097	-0.0364	0	0	-0.0832163	0.125092	-0.0482644	-0.350522	-0.379422	0.194547	0.627581	1.04829	0	0	0.567324	-0.547482	1.05537	0.47647	1.1823	0	0
0.09	0.586341	1.49272	1.21714	0.62527	0.355481	0.997431	0.576651	-0.0560813	0.00554573	0.226214	-0.235157	0	0	-0.0222252	-0.106464	-0.208906	0.590378	-0.0449724	0	0	-0.0771924	0.126047	-0.0450571	-0.354386	-0.365832	0.166532	0.612945	1.0923	0	0	0.577679	-0.544155	1.10522	0.471092	1.11939	0	0
0.1	0.570781	1.48781	1.23868	0.625777	0.367035	0.995803	0.586292	-0.0543875	-0.000802522	0.258375	-0.235462	0	0	-0.0233675	-0.112796	-0.207275	0.598862	-0.0494608	0	0	-0.0712991	0.1274	-0.0517157	-0.349093	-0.365927	0.180868	0.601254	1.08502	0	0	0.563664	-0.551162	1.08388	0.482583	1.10828	0	0
0.11	0.550655	1.4823	1.26378	0.626415	0.378935	0.994127	0.59566	-0.0513905	-0.00606294	0.292644	-0.24005	0	0	-0.0238566	-0.118899	-0.20571	0.607727	-0.0550637	0	0	-0.0643005	0.128543	-0.0587345	-0.343646	-0.365926	0.195829	0.589345	1.07744	0	0	0.544797	-0.559629	1.05547	0.497477	1.0956	0	0
0.12	0.533655	1.4762	1.28501	0.627152	0.391145	0.992456	0.605249	-0.0476665	-0.0127393	0.326621	-0.249668	0	0	-0.0238255	-0.125493	-0.204212	0.617272	-0.0618716	0	0	-0.0566126	0.130115	-0.0658279	-0.337825	-0.365552	0.21101	0.576371	1.06847	0	0	0.521231	-0.568543	1.01942	0.515305	1.08201	0	0
0.13	0.527389	1.47113	1.29443	0.627976	0.403457	0.991118	0.611811	-0.043926	-0.018213	0.34927	-0.256577	0	0	-0.0252266	-0.132061	-0.201458	0.626163	-0.0674845	0	0	-0.0509235	0.132992	-0.0693367	-0.334544	-0.364705	0.221884	0.565722	1.05995	0	0	0.499852	-0.573519	0.988265	0.529399	1.07399	0	0
0.14	0.533132	1.46736	1.29054	0.628845	0.415738	0.990293	0.616367	-0.0403108	-0.021442	0.363871	-0.255236	0	0	-0.0282691	-0.138681	-0.197729	0.634107	-0.0706543	0	0	-0.0476648	0.137552	-0.0696736	-0.333327	-0.364039	0.229216	0.558177	1.05181	0	0	0.481184	-0.575059	0.963623	0.539808	1.0717	0	0
0.15	0.517794	1.45813	1.30606	0.62986	0.428092	0.989236	0.634789	-0.0375029	-0.0269863	0.396451	-0.28401	0	0	-0.0223516	-0.145234	-0.196138	0.647046	-0.0950207	0	0	-0.0356654	0.140758	-0.0689708	-0.332926	-0.354013	0.21021	0.542439	1.08639	0	0	0.465679	-0.578801	0.96991	0.551654	1.02099	0	0
0.16	0.519357	1.45164	1.30362	0.630924	0.440518	0.98884	0.648782	-0.0321363	-0.0298907	0.432622	-0.28291	0	0	-0.0198363	-0.152051	-0.192825	0.659694	-0.109912	0	0	-0.0286245	0.145862	-0.0697329	-0.329108	-0.352721	0.218643	0.531891	1.0773	0	0	0.439964	-0.581433	0.940489	0.566663	1.01661	0	0
0.17	0.521129	1.44658	1.30043	0.632022	0.453016	0.988798	0.660888	-0.0266955	-0.03185	0.471314	-0.278588	0	0	-0.0176937	-0.158305	-0.189664	0.674438	-0.12664	0	0	-0.0227732	0.150826	-0.0703018	-0.325474	-0.350987	0.225835	0.522212	1.06688	0	0	0.413355	-0.583198	0.911713	0.581567	1.01531	0	0
0.18	0.529934	1.44415	1.29071	0.633037	0.465516	0.989243	0.667577	-0.0220461	-0.034624	0.504602	-0.272495	0	0	-0.0169632	-0.164427	-0.185775	0.692119	-0.142682	0	0	-0.0199446	0.156347	-0.0710481	-0.322073	-0.348907	0.231501	0.513637	1.05619	0	0	0.387449	-0.58302	0.885043	0.594559	1.01647	0	0
0.19	0.543028	1.44406	1.27714	0.633967	0.478083	0.990195	0.666239	-0.0183322	-0.0369436	0.524181	-0.266687	0	0	-0.0182782	-0.169541	-0.180737	0.709233	-0.151354	0	0	-0.0196289	0.162223	-0.0713334	-0.320276	-0.347022	0.236006	0.50797	1.04713	0	0	0.363955	-0.579815	0.863981	0.602838	1.02055	0	0
